<?xml version="1.0" standalone="no"?>
<!DOCTYPE svg PUBLIC "-//W3C//DTD SVG 20010904//EN"
 "http://www.w3.org/TR/2001/REC-SVG-20010904/DTD/svg10.dtd">
<svg version="1.0" xmlns="http://www.w3.org/2000/svg"
 width="700.000000pt" height="700.000000pt" viewBox="0 0 700.000000 700.000000"
 preserveAspectRatio="xMidYMid meet">
<metadata>
Created by potrace 1.11, written by Peter Selinger 2001-2013
</metadata>
<g transform="translate(0.000000,700.000000) scale(0.100000,-0.100000)"
fill="#000000" stroke="none">
<path d="M2232 5990 c-689 -241 -1255 -440 -1256 -442 -2 -1 36 -785 84 -1741
69 -1374 90 -1742 101 -1752 29 -26 2325 -1449 2339 -1449 14 0 2310 1423
2339 1449 11 10 32 378 101 1752 48 956 86 1740 84 1742 -5 6 -2498 874 -2519
877 -11 1 -584 -195 -1273 -436z m1582 -412 c169 -62 310 -117 313 -124 2 -6
-84 -339 -192 -740 -109 -401 -198 -733 -199 -738 0 -6 187 -112 417 -236 231
-125 419 -231 419 -236 -1 -5 -188 -461 -417 -1015 l-417 -1005 -121 -76 -120
-76 -59 36 c-32 21 -68 44 -80 53 l-22 17 78 788 c42 434 80 805 82 824 l6 35
-431 215 -431 215 6 50 c2 27 34 457 70 955 35 497 67 906 70 909 6 6 695 259
709 260 5 1 149 -49 319 -111z"/>
</g>
</svg>
